<?xml version="1.0" encoding="UTF-8"?>
<svg width="24px" height="24px" viewBox="0 0 24 24" version="1.1" xmlns="http://www.w3.org/2000/svg">
    <g stroke="none" stroke-width="1" fill="none" fill-rule="evenodd">
        <path d="M12,15 C13.6568542,15 15,13.6568542 15,12 C15,10.3431458 13.6568542,9 12,9 C10.3431458,9 9,10.3431458 9,12 C9,13.6568542 10.3431458,15 12,15 Z" fill="#00B4D8"/>
        <path d="M12,16 C9.790861,16 8,14.209139 8,12 C8,9.790861 9.790861,8 12,8 C14.209139,8 16,9.790861 16,12 C16,14.209139 14.209139,16 12,16 Z" stroke="#00B4D8"/>
        <path d="M12,7 L12,5 M17,12 L19,12 M12,19 L12,17 M5,12 L7,12 M16.5,7.5 L18,6 M16.5,16.5 L18,18 M7.5,16.5 L6,18 M7.5,7.5 L6,6" stroke="#00B4D8" stroke-linecap="round"/>
    </g>
</svg>