<?xml version="1.0" encoding="UTF-8"?>
<svg width="800" height="800" version="1.1" viewBox="0 0 800 800" xmlns="http://www.w3.org/2000/svg">
 <path d="M400 50c-50 0-150 100-200 200s-50 200 0 300 150 200 200 200 150-100 200-200 50-200 0-300-150-200-200-200z" fill="#9333ea"/>
 <path d="M450 150c-25 0-75 50-100 100s-25 100 0 150 75 100 100 100 75-50 100-100 25-100 0-150-75-100-100-100z" fill="#06b6d4"/>
 <path d="M500 250c-12.5 0-37.5 25-50 50s-12.5 50 0 75 37.5 50 50 50 37.5-25 50-50 12.5-50 0-75-37.5-50-50-50z" fill="#22c55e"/>
</svg>