<?xml version="1.0" encoding="UTF-8"?>
<svg xmlns="http://www.w3.org/2000/svg" width="1132" height="632" viewBox="0 0 1132 632" fill="none">
<path d="M585 536C406.5 760 214.5 519.333 140.5 438" stroke="#919191" stroke-width="6"/>
<path d="M585 536C406.5 760 214.5 519.333 140.5 438" stroke="#919191" stroke-width="6"/>
<path d="M583 545.5C567.667 558.666 514.3 601 415.5 591C292 578.5 147.5 505.5 78.5 545.5" stroke="#6F6F6F" stroke-width="6"/>
<path fill-rule="evenodd" clip-rule="evenodd" d="M820.16 313.903L874.359 314.178C877.449 304.702 877.308 286.299 877.149 265.723C876.898 233.071 876.605 194.949 889.119 178.35C919.254 138.375 1041.02 0 1041.02 0C1041.02 0 964.149 74.415 884.199 146.37C874.89 154.748 865.661 156.903 856.274 159.096C852.662 159.94 849.027 160.789 845.355 162H756.085C752.572 162 751.922 167.002 755.319 167.9L774.14 172.876C775.005 173.105 775.157 174.267 774.381 174.711L730.976 199.514C728.091 201.162 729.629 205.583 732.915 205.084L771.191 199.275C771.973 199.156 772.577 199.949 772.254 200.671L750.666 249.044C749.408 251.863 752.715 254.516 755.194 252.676L785.903 229.882C783.872 239.636 783.205 249.965 782.538 260.297C781.74 272.664 780.941 285.035 777.804 296.43C773.389 312.462 750.174 336.051 738.951 347.454C732.359 354.153 729.904 356.647 737.829 350.936L738.475 350.47C763.429 332.483 789.422 313.747 820.16 313.903Z" fill="url(#paint0_linear_136_25)"/>
<path d="M729.925 357.29L517 600.855L618.018 488.31L626.873 479.726C656.616 450.892 696.321 434.621 737.745 434.292L848.001 433.415C935.211 432.721 1019.7 402.993 1088.13 348.924L1132 314.265L828.747 312.723C790.899 312.531 754.835 328.795 729.925 357.29Z" fill="url(#paint1_linear_136_25)"/>
<path d="M618.018 488.31L626.873 479.725C656.616 450.892 696.321 434.621 737.745 434.291L818.35 433.65C818.35 433.65 783.295 477.855 727.33 504.3C682.061 525.691 652.094 521.503 608.02 538.125C567.112 553.552 517 600.855 517 600.855L618.018 488.31Z" fill="url(#paint2_linear_136_25)"/>
<circle cx="837.415" cy="207.87" r="9.84" fill="white"/>
<path d="M79.4943 377L119.063 389.111C150.629 398.773 168.386 432.195 158.724 463.761L119.155 451.649C87.5892 441.988 69.8324 408.566 79.4943 377Z" fill="#1EBDD1"/>
<path d="M0 592.739L20.593 556.846C37.0209 528.212 73.5505 518.317 102.184 534.745L81.5911 570.639C65.1631 599.272 28.6336 609.167 0 592.739Z" fill="#00A86B"/>
<defs>
<linearGradient id="paint0_linear_136_25" x1="729.454" y1="177.056" x2="1041.02" y2="177.056" gradientUnits="userSpaceOnUse">
<stop stop-color="#9757CE"/>
<stop offset="1" stop-color="#4C2C68"/>
</linearGradient>
<linearGradient id="paint1_linear_136_25" x1="1132.62" y1="312.42" x2="616.015" y2="456.33" gradientUnits="userSpaceOnUse">
<stop stop-color="#1EBDD1"/>
<stop offset="1" stop-color="#00A86B"/>
</linearGradient>
<linearGradient id="paint2_linear_136_25" x1="818.965" y1="434.19" x2="517.615" y2="590.4" gradientUnits="userSpaceOnUse">
<stop stop-color="white"/>
<stop offset="0.87" stop-color="#2C2C2C"/>
</linearGradient>
</defs>
</svg>