<svg width="1132" height="632" viewBox="0 0 1132 632" fill="none" xmlns="http://www.w3.org/2000/svg">
<path d="M585 536C406.5 760 214.5 519.333 140.5 438" stroke="#919191" stroke-width="6"/>
<path d="M585 536C406.5 760 214.5 519.333 140.5 438" stroke="#919191" stroke-width="6"/>
<path d="M583 545.5C567.667 558.666 514.3 601 415.5 591C292 578.5 147.5 505.5 78.5 545.5" stroke="#6F6F6F" stroke-width="6"/>
<path fill-rule="evenodd" clip-rule="evenodd" d="M820.16 313.903L874.359 314.178C877.449 304.702 877.308 286.299 877.149 265.723C876.898 233.071 876.605 194.949 889.119 178.35C919.254 138.375 1041.02 0 1041.02 0C1041.02 0 964.149 74.415 884.199 146.37C874.89 154.748 865.661 156.903 856.274 159.096C852.662 159.94 849.027 160.789 845.355 162H756.085C752.572 162 751.922 167.002 755.319 167.9L774.14 172.876C775.005 173.105 775.157 174.267 774.381 174.711L730.976 199.514C728.091 201.162 729.629 205.583 732.915 205.084L771.191 199.275C771.973 199.156 772.577 199.949 772.254 200.671L750.666 249.044C749.408 251.863 752.715 254.516 755.194 252.676L785.903 229.882C783.872 239.636 783.205 249.965 782.538 260.297C781.74 272.664 780.941 285.035 777.804 296.43C773.389 312.462 750.174 336.051 738.951 347.454C732.359 354.153 729.904 356.647 737.829 350.936L738.475 350.47C763.429 332.483 789.422 313.747 820.16 313.903Z" fill="url(#paint0_linear_1_18)"/>
<path d="M729.925 357.29L517 600.855L618.018 488.31L626.873 479.726C656.616 450.892 696.321 434.621 737.745 434.292L848.001 433.415C935.211 432.721 1019.7 402.993 1088.13 348.924L1132 314.265L828.747 312.723C790.899 312.531 754.835 328.795 729.925 357.29Z" fill="url(#paint1_linear_1_18)"/>
<path d="M618.018 488.31L626.873 479.725C656.616 450.892 696.321 434.621 737.745 434.291L818.35 433.65C818.35 433.65 783.295 477.855 727.33 504.3C682.061 525.691 652.094 521.503 608.02 538.125C567.112 553.552 517 600.855 517 600.855L618.018 488.31Z" fill="url(#paint2_linear_1_18)"/>
<path d="M837.415 217.71C842.849 217.71 847.255 213.304 847.255 207.87C847.255 202.436 842.849 198.03 837.415 198.03C831.98 198.03 827.575 202.436 827.575 207.87C827.575 213.304 831.98 217.71 837.415 217.71Z" fill="white"/>
<path d="M79.4943 377L119.063 389.111C150.629 398.773 168.386 432.195 158.724 463.761L119.155 451.649C87.5892 441.988 69.8324 408.566 79.4943 377Z" fill="#1EBDD1"/>
<path d="M0 592.739L20.593 556.846C37.0209 528.212 73.5505 518.317 102.184 534.745L81.5911 570.639C65.1631 599.272 28.6336 609.167 0 592.739Z" fill="#00A86B"/>
<path fill-rule="evenodd" clip-rule="evenodd" d="M490.434 115.527C483.348 84.1576 438.652 84.1576 431.566 115.527C426.973 135.858 403.643 145.522 386.019 134.393C358.827 117.222 327.222 148.827 344.393 176.019C355.522 193.643 345.858 216.973 325.527 221.566C294.158 228.652 294.158 273.348 325.527 280.434C345.858 285.027 355.522 308.357 344.393 325.981C327.222 353.173 358.827 384.778 386.019 367.607C403.643 356.478 426.973 366.142 431.566 386.473C438.652 417.842 483.348 417.842 490.434 386.473C495.027 366.142 518.357 356.478 535.981 367.607C563.173 384.778 594.778 353.173 577.607 325.981C566.478 308.357 576.142 285.027 596.473 280.434C627.842 273.348 627.842 228.652 596.473 221.566C576.142 216.973 566.478 193.643 577.607 176.019C594.778 148.827 563.173 117.222 535.981 134.393C518.357 145.522 495.027 135.858 490.434 115.527ZM461 313.536C495.538 313.536 523.537 285.538 523.537 251C523.537 216.462 495.538 188.463 461 188.463C426.462 188.463 398.464 216.462 398.464 251C398.464 285.538 426.462 313.536 461 313.536Z" fill="#1EBDD1"/>
<defs>
<linearGradient id="paint0_linear_1_18" x1="729.454" y1="177.056" x2="1041.02" y2="177.056" gradientUnits="userSpaceOnUse">
<stop stop-color="#9757CE"/>
<stop offset="1" stop-color="#4C2C68"/>
</linearGradient>
<linearGradient id="paint1_linear_1_18" x1="1132.62" y1="312.42" x2="616.015" y2="456.33" gradientUnits="userSpaceOnUse">
<stop stop-color="#1EBDD1"/>
<stop offset="1" stop-color="#00A86B"/>
</linearGradient>
<linearGradient id="paint2_linear_1_18" x1="818.965" y1="434.19" x2="517.615" y2="590.4" gradientUnits="userSpaceOnUse">
<stop stop-color="white"/>
<stop offset="0.87" stop-color="#2C2C2C"/>
</linearGradient>
</defs>
</svg>
