<?xml version="1.0" encoding="UTF-8"?>
<svg width="1200" height="400" version="1.1" viewBox="0 0 1200 400" xmlns="http://www.w3.org/2000/svg">
 <path d="m76.4 389c-19.3-37.7-42.8-98.2-42.8-157 0-58.4 23.5-119 42.8-157l-0.4 314z" fill="#00b3b0"/>
 <path d="m473 275c-89.8 0-183-58.4-183-157h366c0 98.6-93.2 157-183 157" fill="#00b3b0"/>
 <path d="m1124 389c19.3-37.7 42.8-98.2 42.8-157 0-58.4-23.5-119-42.8-157l0.4 314z" fill="#662d91"/>
 <path d="m727 275c89.8 0 183-58.4 183-157h-366c0 98.6 93.2 157 183 157" fill="#662d91"/>
 <circle cx="600" cy="118" r="50" fill="#00b3b0"/>
</svg>